<?xml version="1.0" standalone="no"?>
<!DOCTYPE svg PUBLIC "-//W3C//DTD SVG 20010904//EN"
 "http://www.w3.org/TR/2001/REC-SVG-20010904/DTD/svg10.dtd">
<svg version="1.0" xmlns="http://www.w3.org/2000/svg"
 width="512.000000pt" height="512.000000pt" viewBox="0 0 512.000000 512.000000"
 preserveAspectRatio="xMidYMid meet">

<g transform="translate(0.000000,512.000000) scale(0.100000,-0.100000)"
fill="#000000" stroke="none">
<path d="M1435 4448 c-441 -33 -820 -296 -978 -678 -159 -385 -90 -854 188
-1268 188 -282 448 -531 1030 -988 531 -416 714 -590 822 -783 32 -56 38 -62
47 -46 86 147 220 298 399 448 62 52 258 206 437 342 536 409 688 537 873 740
308 337 458 643 486 991 35 437 -139 805 -488 1032 -272 177 -626 239 -943
163 -338 -80 -611 -330 -723 -660 l-21 -64 -28 79 c-166 466 -586 731 -1101
692z"/>
</g>
</svg>
