<?xml version="1.0" standalone="no"?>
<!DOCTYPE svg PUBLIC "-//W3C//DTD SVG 20010904//EN"
 "http://www.w3.org/TR/2001/REC-SVG-20010904/DTD/svg10.dtd">
<svg version="1.0" xmlns="http://www.w3.org/2000/svg"
 width="258.000000pt" height="258.000000pt" viewBox="0 0 258.000000 258.000000"
 preserveAspectRatio="xMidYMid meet">

<g transform="translate(0.000000,258.000000) scale(0.100000,-0.100000)"
fill="#000000" stroke="none">
<path d="M1132 2400 c-295 -54 -511 -266 -573 -565 -10 -49 -19 -111 -19 -137
l0 -48 225 0 225 0 0 43 c0 103 56 235 124 293 106 91 307 82 389 -16 56 -67
73 -206 37 -303 -24 -64 -70 -114 -204 -222 -187 -150 -250 -271 -263 -502
l-6 -113 212 0 211 0 0 70 c0 140 51 218 239 359 241 183 311 304 311 546 -1
107 -11 159 -51 242 -80 167 -232 282 -442 334 -94 23 -330 34 -415 19z"/>
<path d="M1195 637 c-57 -15 -137 -98 -154 -160 -25 -87 -3 -174 60 -236 52
-52 86 -66 169 -66 64 0 82 4 121 27 72 42 119 124 119 207 0 64 -23 114 -75
167 -68 69 -141 87 -240 61z"/>
</g>
</svg>
