<?xml version="1.0" standalone="no"?>
<!DOCTYPE svg PUBLIC "-//W3C//DTD SVG 20010904//EN"
 "http://www.w3.org/TR/2001/REC-SVG-20010904/DTD/svg10.dtd">
<svg version="1.0" xmlns="http://www.w3.org/2000/svg"
 width="900.000000pt" height="900.000000pt" viewBox="0 0 900.000000 900.000000"
 preserveAspectRatio="xMidYMid meet">

<g transform="translate(0.000000,900.000000) scale(0.100000,-0.100000)"
fill="#000000" stroke="none">
<path d="M4306 8648 c-1214 -47 -2363 -651 -3114 -1635 -512 -672 -807 -1488
-840 -2318 -25 -640 69 -1193 300 -1765 101 -250 282 -582 438 -805 650 -929
1642 -1551 2755 -1729 364 -58 804 -65 1170 -20 1117 139 2112 716 2805 1624
476 625 765 1397 826 2205 10 132 6 499 -6 655 -31 386 -126 788 -277 1170
-489 1238 -1558 2176 -2848 2499 -393 99 -770 136 -1209 119z m1958 -2491
c193 -51 373 -177 485 -340 49 -72 98 -185 124 -284 l22 -88 0 -955 0 -955
-22 -80 c-86 -308 -321 -540 -624 -616 l-94 -24 -1660 0 -1660 0 -99 27 c-271
75 -491 275 -582 529 -48 137 -47 119 -51 1064 -3 588 0 924 7 989 21 199 100
366 240 507 111 112 220 179 360 221 100 31 246 33 1920 32 l1535 -2 99 -25z"/>
<path d="M3850 5253 c0 -38 -3 -407 -7 -822 -6 -739 -6 -753 13 -743 74 39
541 287 794 422 168 89 406 217 530 283 124 65 226 120 227 121 8 6 -1532 806
-1551 806 -3 0 -6 -30 -6 -67z"/>
</g>
</svg>
